<?xml version="1.0"?>
<svg xmlns="http://www.w3.org/2000/svg" xmlns:xlink="http://www.w3.org/1999/xlink" version="1.1" id="Capa_1" x="0px" y="0px" width="512px" height="512px" viewBox="0 0 46 46" style="enable-background:new 0 0 46 46;" xml:space="preserve" class=""><g><g>
	<g id="Tags">
		<g>
			<path d="M33.43,21.763l-5.546-5.305c-0.479-0.458-1.256-0.458-1.735,0l-0.578,0.554c-0.479,0.459-0.479,1.202,0,1.66l4.459,4.264     l-4.541,4.341c-0.487,0.469-0.487,1.226,0,1.691l0.591,0.564c0.487,0.467,1.278,0.467,1.769,0l5.666-5.42     c0.381-0.364,0.454-0.9,0.24-1.343C33.811,22.413,33.718,22.038,33.43,21.763z M23,0C10.298,0,0,10.298,0,23s10.298,23,23,23     s23-10.298,23-23S35.702,0,23,0z M23,42C12.507,42,4,33.493,4,23S12.507,4,23,4s19,8.507,19,19S33.493,42,23,42z M20.512,17.031     l-0.59-0.564c-0.488-0.467-1.279-0.467-1.768,0l-5.666,5.42c-0.381,0.364-0.455,0.9-0.241,1.343     c-0.058,0.356,0.035,0.731,0.323,1.008l5.546,5.305c0.479,0.458,1.256,0.458,1.735,0l0.578-0.554c0.479-0.459,0.479-1.202,0-1.66     l-4.457-4.265l4.539-4.341C21,18.255,21,17.498,20.512,17.031z" data-original="#000000" class="active-path" data-old_color="#e4e2d5" fill="#e4e2d5"/>
		</g>
	</g>
</g></g> </svg>
